<svg width="24" height="24" viewBox="0 0 24 24" fill="none" xmlns="http://www.w3.org/2000/svg">
<path d="M21.375 13.9125V12.75C21.3698 10.8579 20.7945 9.01132 19.7242 7.45104C18.654 5.89075 17.1383 4.68921 15.375 4.00313V3.75C15.375 3.50377 15.3265 3.25995 15.2323 3.03247C15.138 2.80498 14.9999 2.59828 14.8258 2.42417C14.6517 2.25006 14.445 2.11195 14.2175 2.01773C13.99 1.9235 13.7462 1.875 13.5 1.875H10.5C10.0027 1.875 9.52581 2.07254 9.17417 2.42417C8.82254 2.77581 8.625 3.25272 8.625 3.75V4.00313C6.86169 4.68921 5.34605 5.89075 4.27576 7.45104C3.20547 9.01132 2.6302 10.8579 2.625 12.75V13.9125C2.20149 13.9989 1.82085 14.2291 1.54751 14.5639C1.27417 14.8988 1.12491 15.3178 1.125 15.75V18C1.125 18.4973 1.32254 18.9742 1.67417 19.3258C2.02581 19.6775 2.50272 19.875 3 19.875H21C21.4973 19.875 21.9742 19.6775 22.3258 19.3258C22.6775 18.9742 22.875 18.4973 22.875 18V15.75C22.8751 15.3178 22.7258 14.8988 22.4525 14.5639C22.1791 14.2291 21.7985 13.9989 21.375 13.9125ZM19.125 12.75V13.875H15.375V6.47531C16.5062 7.08773 17.4515 7.99368 18.1114 9.09786C18.7713 10.202 19.1214 11.4637 19.125 12.75ZM13.125 4.125V13.875H10.875V4.125H13.125ZM8.625 6.47531V13.875H4.875V12.75C4.87857 11.4637 5.22872 10.202 5.88862 9.09786C6.54852 7.99368 7.49379 7.08773 8.625 6.47531ZM20.625 17.625H3.375V16.125H20.625V17.625Z" fill="black"/>
</svg>
