<svg width="24" height="24" viewBox="0 0 24 24" fill="none" xmlns="http://www.w3.org/2000/svg">
<path d="M12 1.875C9.99747 1.875 8.0399 2.46882 6.37486 3.58137C4.70981 4.69392 3.41206 6.27523 2.64572 8.12533C1.87939 9.97543 1.67888 12.0112 2.06955 13.9753C2.46023 15.9393 3.42454 17.7435 4.84055 19.1595C6.25656 20.5755 8.06066 21.5398 10.0247 21.9305C11.9888 22.3211 14.0246 22.1206 15.8747 21.3543C17.7248 20.5879 19.3061 19.2902 20.4186 17.6251C21.5312 15.9601 22.125 14.0025 22.125 12C22.122 9.3156 21.0543 6.74199 19.1562 4.84383C17.258 2.94567 14.6844 1.87798 12 1.875ZM12 19.875C10.4425 19.875 8.91993 19.4131 7.62489 18.5478C6.32985 17.6825 5.32049 16.4526 4.72445 15.0136C4.12841 13.5747 3.97246 11.9913 4.27632 10.4637C4.58018 8.93606 5.3302 7.53287 6.43154 6.43153C7.53288 5.3302 8.93607 4.58017 10.4637 4.27632C11.9913 3.97246 13.5747 4.12841 15.0136 4.72445C16.4526 5.32049 17.6825 6.32985 18.5478 7.62488C19.4131 8.91992 19.875 10.4425 19.875 12C19.8728 14.0879 19.0424 16.0896 17.566 17.566C16.0896 19.0424 14.0879 19.8728 12 19.875ZM15.0459 11.2041C15.1508 11.3086 15.234 11.4328 15.2908 11.5695C15.3476 11.7063 15.3768 11.8529 15.3768 12.0009C15.3768 12.149 15.3476 12.2956 15.2908 12.4324C15.234 12.5691 15.1508 12.6933 15.0459 12.7978L11.2959 16.5478C11.0846 16.7592 10.798 16.8779 10.4991 16.8779C10.2002 16.8779 9.91354 16.7592 9.70219 16.5478C9.49085 16.3365 9.37212 16.0498 9.37212 15.7509C9.37212 15.4521 9.49085 15.1654 9.70219 14.9541L12.6563 12L9.70407 9.04594C9.49272 8.83459 9.37399 8.54795 9.37399 8.24906C9.37399 7.95018 9.49272 7.66353 9.70407 7.45219C9.91541 7.24084 10.2021 7.12211 10.5009 7.12211C10.7998 7.12211 11.0865 7.24084 11.2978 7.45219L15.0459 11.2041Z" fill="black"/>
</svg>
