<svg width="24" height="24" viewBox="0 0 24 24" fill="none" xmlns="http://www.w3.org/2000/svg">
<path d="M10.9893 17.6945C11.0941 17.799 11.1774 17.9232 11.2341 18.06C11.2909 18.1967 11.3202 18.3433 11.3202 18.4914C11.3202 18.6394 11.2909 18.7861 11.2341 18.9228C11.1774 19.0595 11.0941 19.1837 10.9893 19.2883L10.5093 19.7683C9.99973 20.2797 9.39387 20.685 8.7267 20.9608C8.05954 21.2366 7.34432 21.3775 6.62239 21.3751C5.5352 21.3755 4.47234 21.0534 3.56826 20.4495C2.66419 19.8457 1.95953 18.9872 1.54343 17.9828C1.12733 16.9784 1.0185 15.8732 1.2307 14.8069C1.44289 13.7406 1.96658 12.7612 2.73552 11.9926L5.99333 8.73482C6.68627 8.04198 7.5518 7.54694 8.50031 7.30096C9.44882 7.05498 10.4458 7.06698 11.3882 7.33574C12.3305 7.60449 13.1838 8.12023 13.8599 8.82955C14.5359 9.53887 15.0101 10.416 15.2333 11.3701C15.2703 11.5152 15.2779 11.6662 15.2558 11.8143C15.2337 11.9623 15.1822 12.1045 15.1044 12.2324C15.0267 12.3603 14.9241 12.4714 14.8029 12.5592C14.6816 12.647 14.544 12.7097 14.3982 12.7436C14.2524 12.7776 14.1013 12.7821 13.9537 12.7569C13.8062 12.7317 13.6651 12.6772 13.5388 12.5968C13.4126 12.5164 13.3036 12.4116 13.2184 12.2885C13.1331 12.1655 13.0733 12.0266 13.0424 11.8801C12.9099 11.3169 12.6295 10.7993 12.2299 10.3808C11.8304 9.96225 11.3264 9.65803 10.7699 9.49956C10.2135 9.34109 9.62479 9.33412 9.06473 9.47937C8.50467 9.62462 7.99357 9.91682 7.58427 10.3258L4.32645 13.5836C3.87234 14.0373 3.56298 14.6155 3.4375 15.2451C3.31202 15.8747 3.37606 16.5273 3.62152 17.1205C3.86698 17.7137 4.28283 18.2207 4.81649 18.5776C5.35014 18.9344 5.97762 19.1249 6.61958 19.1251C7.04612 19.1263 7.46866 19.0429 7.86275 18.8798C8.25685 18.7166 8.61467 18.4769 8.91552 18.1745L9.39458 17.6945C9.49911 17.5895 9.62336 17.5061 9.7602 17.4493C9.89703 17.3924 10.0437 17.3631 10.1919 17.3631C10.3401 17.3631 10.4868 17.3924 10.6237 17.4493C10.7605 17.5061 10.8847 17.5895 10.9893 17.6945ZM21.269 4.23482C20.2378 3.20405 18.8396 2.625 17.3816 2.625C15.9236 2.625 14.5254 3.20405 13.4943 4.23482L13.0152 4.71388C12.8039 4.92522 12.6851 5.21187 12.6851 5.51075C12.6851 5.80964 12.8039 6.09628 13.0152 6.30763C13.2265 6.51897 13.5132 6.6377 13.8121 6.6377C14.111 6.6377 14.3976 6.51897 14.609 6.30763L15.089 5.82763C15.6981 5.21846 16.5243 4.87623 17.3858 4.87623C18.2473 4.87623 19.0735 5.21846 19.6827 5.82763C20.2919 6.4368 20.6341 7.26301 20.6341 8.1245C20.6341 8.986 20.2919 9.81221 19.6827 10.4214L16.4193 13.6745C16.1185 13.977 15.7607 14.2167 15.3666 14.3799C14.9725 14.5431 14.5499 14.6264 14.1233 14.6251C13.3916 14.6246 12.6815 14.3769 12.1082 13.9222C11.5349 13.4675 11.132 12.8325 10.9649 12.1201C10.8973 11.8295 10.7169 11.5776 10.4636 11.4199C10.2102 11.2622 9.90461 11.2116 9.61395 11.2792C9.32329 11.3468 9.0714 11.5271 8.9137 11.7805C8.75599 12.0338 8.70539 12.3395 8.77302 12.6301C9.0553 13.8366 9.73686 14.9123 10.7072 15.6828C11.6775 16.4533 12.8796 16.8735 14.1186 16.8751H14.1233C14.8456 16.8771 15.5611 16.7359 16.2284 16.4596C16.8957 16.1833 17.5017 15.7774 18.0111 15.2654L21.269 12.0076C21.7794 11.4973 22.1843 10.8914 22.4606 10.2246C22.7368 9.55774 22.879 8.84302 22.879 8.12122C22.879 7.39943 22.7368 6.6847 22.4606 6.01787C22.1843 5.35103 21.7794 4.74515 21.269 4.23482Z" fill="black"/>
</svg>
