<svg width="24" height="24" viewBox="0 0 24 24" fill="none" xmlns="http://www.w3.org/2000/svg">
<path d="M7.875 6C7.875 5.70163 7.99353 5.41548 8.2045 5.2045C8.41548 4.99353 8.70163 4.875 9 4.875H20.25C20.5484 4.875 20.8345 4.99353 21.0455 5.2045C21.2565 5.41548 21.375 5.70163 21.375 6C21.375 6.29837 21.2565 6.58452 21.0455 6.7955C20.8345 7.00647 20.5484 7.125 20.25 7.125H9C8.70163 7.125 8.41548 7.00647 8.2045 6.7955C7.99353 6.58452 7.875 6.29837 7.875 6ZM20.25 10.875H9C8.70163 10.875 8.41548 10.9935 8.2045 11.2045C7.99353 11.4155 7.875 11.7016 7.875 12C7.875 12.2984 7.99353 12.5845 8.2045 12.7955C8.41548 13.0065 8.70163 13.125 9 13.125H20.25C20.5484 13.125 20.8345 13.0065 21.0455 12.7955C21.2565 12.5845 21.375 12.2984 21.375 12C21.375 11.7016 21.2565 11.4155 21.0455 11.2045C20.8345 10.9935 20.5484 10.875 20.25 10.875ZM20.25 16.875H9C8.70163 16.875 8.41548 16.9935 8.2045 17.2045C7.99353 17.4155 7.875 17.7016 7.875 18C7.875 18.2984 7.99353 18.5845 8.2045 18.7955C8.41548 19.0065 8.70163 19.125 9 19.125H20.25C20.5484 19.125 20.8345 19.0065 21.0455 18.7955C21.2565 18.5845 21.375 18.2984 21.375 18C21.375 17.7016 21.2565 17.4155 21.0455 17.2045C20.8345 16.9935 20.5484 16.875 20.25 16.875ZM5.25 4.875H3.75C3.45163 4.875 3.16548 4.99353 2.9545 5.2045C2.74353 5.41548 2.625 5.70163 2.625 6C2.625 6.29837 2.74353 6.58452 2.9545 6.7955C3.16548 7.00647 3.45163 7.125 3.75 7.125H5.25C5.54837 7.125 5.83452 7.00647 6.0455 6.7955C6.25647 6.58452 6.375 6.29837 6.375 6C6.375 5.70163 6.25647 5.41548 6.0455 5.2045C5.83452 4.99353 5.54837 4.875 5.25 4.875ZM5.25 10.875H3.75C3.45163 10.875 3.16548 10.9935 2.9545 11.2045C2.74353 11.4155 2.625 11.7016 2.625 12C2.625 12.2984 2.74353 12.5845 2.9545 12.7955C3.16548 13.0065 3.45163 13.125 3.75 13.125H5.25C5.54837 13.125 5.83452 13.0065 6.0455 12.7955C6.25647 12.5845 6.375 12.2984 6.375 12C6.375 11.7016 6.25647 11.4155 6.0455 11.2045C5.83452 10.9935 5.54837 10.875 5.25 10.875ZM5.25 16.875H3.75C3.45163 16.875 3.16548 16.9935 2.9545 17.2045C2.74353 17.4155 2.625 17.7016 2.625 18C2.625 18.2984 2.74353 18.5845 2.9545 18.7955C3.16548 19.0065 3.45163 19.125 3.75 19.125H5.25C5.54837 19.125 5.83452 19.0065 6.0455 18.7955C6.25647 18.5845 6.375 18.2984 6.375 18C6.375 17.7016 6.25647 17.4155 6.0455 17.2045C5.83452 16.9935 5.54837 16.875 5.25 16.875Z" fill="black"/>
</svg>
