<svg width="24" height="24" viewBox="0 0 24 24" fill="none" xmlns="http://www.w3.org/2000/svg">
<path d="M21.75 7.875H19.875V6C19.875 5.50272 19.6775 5.02581 19.3258 4.67417C18.9742 4.32254 18.4973 4.125 18 4.125H4.875C4.37772 4.125 3.90081 4.32254 3.54917 4.67417C3.19754 5.02581 3 5.50272 3 6V7.875H1.5C1.20163 7.875 0.915483 7.99353 0.704505 8.2045C0.493526 8.41548 0.375 8.70163 0.375 9C0.375 9.29837 0.493526 9.58452 0.704505 9.7955C0.915483 10.0065 1.20163 10.125 1.5 10.125H3V12C3 12.4973 3.19754 12.9742 3.54917 13.3258C3.90081 13.6775 4.37772 13.875 4.875 13.875H18C18.4973 13.875 18.9742 13.6775 19.3258 13.3258C19.6775 12.9742 19.875 12.4973 19.875 12V10.125H21.375V14.5312L12.2344 17.1375C11.8439 17.2506 11.5004 17.4871 11.2554 17.8115C11.0104 18.1359 10.877 18.5309 10.875 18.9375V21.75C10.875 22.0484 10.9935 22.3345 11.2045 22.5455C11.4155 22.7565 11.7016 22.875 12 22.875C12.2984 22.875 12.5845 22.7565 12.7955 22.5455C13.0065 22.3345 13.125 22.0484 13.125 21.75V19.2234L22.2656 16.6125C22.6561 16.4994 22.9996 16.2629 23.2446 15.9385C23.4896 15.6141 23.623 15.2191 23.625 14.8125V9.75C23.625 9.25272 23.4275 8.77581 23.0758 8.42417C22.7242 8.07254 22.2473 7.875 21.75 7.875ZM17.625 11.625H5.25V6.375H17.625V11.625Z" fill="black"/>
</svg>
