<svg width="24" height="24" viewBox="0 0 24 24" fill="none" xmlns="http://www.w3.org/2000/svg">
<path d="M20.2959 9.79595L12.7959 17.2959C12.6914 17.4008 12.5672 17.484 12.4304 17.5408C12.2937 17.5976 12.1471 17.6268 11.999 17.6268C11.851 17.6268 11.7043 17.5976 11.5676 17.5408C11.4309 17.484 11.3067 17.4008 11.2021 17.2959L3.70215 9.79595C3.4908 9.5846 3.37207 9.29796 3.37207 8.99907C3.37207 8.70019 3.4908 8.41354 3.70215 8.2022C3.91349 7.99085 4.20014 7.87212 4.49902 7.87212C4.79791 7.87212 5.08455 7.99085 5.2959 8.2022L12 14.9063L18.704 8.20126C18.9154 7.98992 19.202 7.87119 19.5009 7.87119C19.7998 7.87119 20.0864 7.98992 20.2978 8.20126C20.5091 8.41261 20.6278 8.69925 20.6278 8.99814C20.6278 9.29702 20.5091 9.58367 20.2978 9.79501L20.2959 9.79595Z" fill="black"/>
</svg>
